<?xml version="1.0" encoding="UTF-8"?>
<!-- Generator: visioncortex VTracer 0.6.12 -->
<svg version="1.1" xmlns="http://www.w3.org/2000/svg" width="512" height="512">
<path d="M0 0 C3.0706196805444392 1.713686087274815 5.404507261689048 3.80901452337811 7 7 C7.23828125 8.953125000000103 7.23828125 8.953125000000103 7.3125 11.25 C7.349882812500027 11.997656249999999 7.387265624999998 12.7453125 7.42578125 13.515625 C6.157678901884594 20.914827691756045 -1.1928416651844032 26.454283322237586 -6.250732421875 31.4619140625 C-7.1959385181244215 32.404916171685954 -8.14069488341346 33.34836924424616 -9.085037231445313 34.292236328125 C-11.110840492785371 36.3151176871152 -13.139745725189073 38.33481552287675 -15.171163558959961 40.35205841064453 C-18.381914404421877 43.54047195266093 -21.58549667469066 46.73602420328921 -24.788162231445313 49.93255615234375 C-29.851070361022494 54.98410615228018 -34.9186341955475 60.0309556329064 -39.98826342821121 65.07575964927673 C-49.0781487859781 74.12121804121085 -58.16236206264557 83.17236468808919 -67.24142915010452 92.22868132591248 C-70.42815008343132 95.4069852779479 -73.6176572138204 98.58245918784519 -76.80941998958588 101.755699634552 C-78.31354296565257 103.25175589008722 -79.81655107651386 104.74892149561894 -81.31907653808594 106.24658203125 C-83.15337047346566 108.07482802528195 -84.98949400027442 109.90124081804822 -86.82772827148438 111.72552490234375 C-87.6310810852051 112.52736206054688 -88.43443389892576 113.32919921875 -89.26213073730469 114.15533447265625 C-89.61304070949552 114.50448472976684 -89.61304070949552 114.50448472976684 -91.3888578414917 116.27139663696289 C-92.99999999999994 117.99999999999993 -92.99999999999994 117.99999999999993 -94 120 C-93.34257812499999 120.2049609375 -92.68515624999998 120.409921875 -92.0078125 120.62109375 C-87.83349891356607 122.53477257598854 -84.47875905253716 125.24162791349721 -80.875 128.0625 C-80.11727294921877 128.64958740234374 -79.35954589843749 129.2366748046875 -78.578857421875 129.841552734375 C-72.6363959185673 134.4620616520613 -66.76194859785568 139.15566445000943 -61 144 C-60.47905761718749 144.436025390625 -59.958115234374986 144.87205078125 -59.42138671875 145.3212890625 C-49.984634642420815 153.23704903792276 -40.891852630704705 161.47792042373365 -32 170 C-31.644218749999993 170.33878173828126 -31.644218749999993 170.33878173828126 -29.84375 172.05322265625 C-6.521615432892588 194.36425235766197 7.264864911482675 217.83993956092854 8 251 C7.766804078017401 266.3555086854853 3.924648425549492 280.4041244708195 -2.6875 294.1875 C-2.9654541015625 294.7800659179687 -3.243408203125 295.3726318359375 -3.52978515625 295.983154296875 C-9.347949892488373 307.43563841523275 -18.479132569826106 316.94372381329634 -27.56884765625 325.85009765625 C-29.138543405559574 327.38827143255804 -30.696978686503655 328.9371939899616 -32.25390625 330.48828125 C-37.66812024426389 335.8609133101575 -43.193364559550105 341.0510404917513 -49 346 C-50.28540701671011 347.1271378105399 -51.569255930063775 348.25605491699974 -52.8515625 349.38671875 C-54.10921369345459 350.48716354427273 -55.36702550970426 351.5874247973866 -56.625 352.6875 C-57.254062499999975 353.24244140625 -57.88312500000001 353.7973828125 -58.53125 354.369140625 C-69.08857630898632 363.5794221870928 -69.08857630898632 363.5794221870928 -75.125 363.4375 C-75.952578125 363.4362109375 -76.78015625 363.434921875 -77.6328125 363.43359375 C-80.4359681958162 362.9201444393802 -81.87036246391284 361.8499385970158 -84 360 C-86.83755043384559 361.3467010409761 -89.37121034803204 362.8658268486863 -91.93359375 364.6796875 C-92.66513671874998 365.1966015625 -93.39667968750001 365.713515625 -94.150390625 366.24609375 C-94.90513671874999 366.7836328125 -95.65988281249997 367.321171875 -96.4375 367.875 C-97.18837890625002 368.4048046875 -97.93925781249999 368.934609375 -98.712890625 369.48046875 C-100.16630112893807 370.51076678533343 -101.6144692796347 371.5485101731148 -103.056640625 372.594482421875 C-104.70724502377465 373.78826753792345 -106.38065812068243 374.95041472164473 -108.05859375 376.10546875 C-110 378 -110 378 -110.1640625 380.18359375 C-109.98617187500003 380.9273828125 -109.80828125 381.671171875 -109.625 382.4375 C-108.89281609195399 386.732040229885 -108.89281609195399 386.732040229885 -110.125 389.8125 C-131.37784692993222 414.60748808492093 -179.1675513957686 425.33343264687755 -210 431 C-210.71333496093752 431.1327734375 -211.42666992187497 431.265546875 -212.16162109375 431.40234375 C-232.45520373959528 434.97441565206225 -255.7369112403199 434.54470626458846 -276 431 C-276.410888671875 430.92998779296875 -276.410888671875 430.92998779296875 -278.490234375 430.57568359375 C-309.0293515592791 425.1576346165096 -340.3467918828503 413.99131156929917 -366.4609375 397.1328125 C-369 396 -369 396 -370.8930358886719 396.677734375 C-373.35335262802926 398.22175319979794 -375.20146066237584 399.96191909169323 -377.25048828125 402.0234375 C-378.09162170410156 402.8647119140625 -378.9327551269531 403.705986328125 -379.79937744140625 404.57275390625 C-380.7137860107422 405.4974951171875 -381.6281945800781 406.422236328125 -382.5703125 407.375 C-383.5491760840732 408.35770307321496 -384.5284968641749 409.3399509173078 -385.50823974609375 410.32177734375 C-387.6151255435879 412.4349806398873 -389.7188648100736 414.55125025046914 -391.82025146484375 416.669921875 C-395.14307678814333 420.0197995917968 -398.473523876535 423.36202890986004 -401.80517578125 426.703125 C-408.87604470452163 433.7961914099728 -415.93844574408826 440.8976620779252 -423 448 C-430.62346479004935 455.6674937434123 -438.24834820965316 463.33354260144193 -445.8830318450928 470.9898681640625 C-449.1948025469036 474.31160597997393 -452.50163438111076 477.63816063193457 -455.8047790527344 480.9684753417969 C-457.8602484602305 483.0388607881519 -459.91985056643693 485.1050967320321 -461.98059844970703 487.17022705078125 C-463.3906842662628 488.58584378019316 -464.7957283934915 490.0064768938078 -466.20062255859375 491.42724609375 C-467.0417559814453 492.2685205078125 -467.88288940429686 493.109794921875 -468.74951171875 493.9765625 C-469.47806365966795 494.7095556640625 -470.20661560058596 495.442548828125 -470.9572448730469 496.19775390625 C-475.0206536338918 499.78274677686653 -478.43997053490256 500.4907761124028 -483.7421875 500.39453125 C-487.5907596806601 499.7220298827912 -489.339779884903 497.79323112085183 -492 495 C-493.13557237773404 492.72885524453187 -493.230843176178 491.27706381091303 -493.3125 488.75 C-493.3498828125 488.00234375 -493.387265625 487.2546875 -493.42578125 486.484375 C-492.15767890188454 479.0851723082439 -484.8071583348156 473.5457166777624 -479.749267578125 468.5380859375 C-478.8040614818756 467.59508382831405 -477.85930511658654 466.65163075575384 -476.9149627685547 465.707763671875 C-474.8891595072147 463.68488231288484 -472.8602542748109 461.66518447712326 -470.82883644104004 459.64794158935547 C-467.6180855955782 456.4595280473391 -464.4145033253093 453.2639757967108 -461.2118377685547 450.06744384765625 C-456.14892963897745 445.0158938477198 -451.0813658044525 439.9690443670936 -446.0117365717888 434.92424035072327 C-436.92185121402196 425.87878195878915 -427.83763793735443 416.8276353119108 -418.7585708498955 407.7713186740875 C-415.5718499165687 404.59301472205215 -412.3823427861796 401.4175408121548 -409.1905800104141 398.244300365448 C-407.6864570343475 396.74824410991283 -406.183448923486 395.251078504381 -404.68092346191406 393.75341796875 C-402.84662952653434 391.92517197471807 -401.0105059997256 390.0987591819518 -399.1722717285156 388.27447509765625 C-398.3689189147949 387.47263793945314 -397.56556610107424 386.67080078125 -396.7378692626953 385.84466552734375 C-396.0360493183136 385.14636501312253 -395.33422937393186 384.4480644989014 -394.6111421585083 383.7286033630371 C-393 382 -393 382 -392 380 C-392.3287109375 379.89751953125 -392.3287109375 379.89751953125 -393.9921875 379.37890625 C-398.1665181564405 377.46521959841107 -401.5211877491034 374.75832685506265 -405.125 371.9375 C-405.882001953125 371.3511376953125 -406.63900390624997 370.764775390625 -407.4189453125 370.16064453125 C-413.3627069571028 365.54011060684536 -419.2261097884276 360.83138754468337 -425 356 C-426.0003125 355.1737109375 -427.000625 354.347421875 -428.03125 353.49609375 C-436.66629122892255 346.3236308452153 -444.8976480045477 338.76623229985853 -453 331 C-453.38889404296873 330.6307641601562 -453.38889404296873 330.6307641601562 -455.35693359375 328.76220703125 C-477.62309684750653 307.53598332387907 -492.69196526530305 284.51504387048027 -494.03125 252.94140625 C-493.8974036250475 236.06003220911543 -490.590730669365 220.9411835529542 -483.25 205.75 C-483.10683349609377 205.44952758789063 -483.10683349609377 205.44952758789063 -482.38232421875 203.928955078125 C-476.5323069833939 192.47331176359287 -467.73484335752414 183.2871522408795 -458.652099609375 174.370849609375 C-456.9287381371739 172.67889782939113 -455.2165094328167 170.97627854900728 -453.505859375 169.271484375 C-447.83615610181664 163.64161951972923 -442.09319868012113 158.17372384143013 -436 153 C-434.79638658656734 151.94344247597715 -433.5945582870295 150.88484788450577 -432.39453125 149.82421875 C-424.4932153351895 142.8880739303734 -416.4515599184245 136.25685481098634 -408 130 C-407.3366162109375 129.505322265625 -406.673232421875 129.01064453125 -405.98974609375 128.5009765625 C-367.00350044713235 99.51326245783119 -324.08939386325113 77.70038375815399 -276 69 C-275.291015625 68.8686767578125 -274.58203125 68.737353515625 -273.8515625 68.60205078125 C-253.55311120469975 65.02675538264597 -230.2686977862761 65.45431252509613 -210 69 C-209.17822265625 69.1400244140625 -208.3564453125 69.280048828125 -207.509765625 69.42431640625 C-176.97064844072088 74.84236538349037 -145.6532081171497 86.00868843070084 -119.5390625 102.8671875 C-117 104 -117 104 -115.10696411132813 103.322265625 C-112.64664737197086 101.77824680020208 -110.79853933762405 100.03808090830667 -108.74951171875 97.9765625 C-107.90837829589844 97.1352880859375 -107.06724487304689 96.294013671875 -106.20062255859375 95.42724609375 C-105.28621398925782 94.5025048828125 -104.37180541992188 93.577763671875 -103.4296875 92.625 C-102.45082391592672 91.64229692678501 -101.47150313582512 90.66004908269217 -100.49176025390625 89.67822265625 C-98.38487445641204 87.56501936011261 -96.28113518992643 85.44874974953089 -94.17974853515625 83.330078125 C-90.85692321185667 79.98020040820317 -87.52647612346499 76.63797109013996 -84.19482421875 73.296875 C-77.12395529547837 66.20380859002722 -70.06155425591174 59.102337922074824 -63 52 C-55.37653520995059 44.33250625658766 -47.75165179034684 36.66645739855804 -40.11696815490723 29.0101318359375 C-36.80519745309647 25.68839402002616 -33.49836561888918 22.361839368065343 -30.195220947265625 19.031524658203125 C-28.13975153976952 16.961139211848057 -26.080149433563065 14.894903267967873 -24.01940155029297 12.82977294921875 C-22.60931573373722 11.41415621980683 -21.204271606508485 9.993523106192164 -19.79937744140625 8.57275390625 C-18.958244018554694 7.7314794921875 -18.11711059570314 6.890205078125 -17.25048828125 6.0234375 C-16.521936340332047 5.290444335937501 -15.793384399414037 4.557451171875 -15.042755126953125 3.80224609375 C-10.480554097244067 -0.22281245399636518 -5.933198096924571 -1.0367699096702143 0 0 Z " fill="#010100" transform="translate(499,6)"/>
<path d="M0 0 C20.95412540540417 8.01996957858475 40.18614820213821 28.423844272453607 56.376953125 43.49462890625 C58.16605943387157 45.15401962533875 59.96562929713588 46.80164937687792 61.765625 48.44921875 C77.37893407330819 62.79063525533533 94.78694980423194 80.0471622344574 96.1611328125 102.650390625 C96.20700101324212 105.93370043626277 96.23530826000012 109.21639611002894 96.25 112.5 C96.2603125 113.06074218750001 96.2603125 113.06074218750001 96.3125 115.8984375 C96.41489006710759 138.06588702879338 85.87753492973741 155.86751728336708 70.72265625 171.28662109375 C65.87354963866557 176.1096129019055 60.84973657600199 180.7441940817041 55.798828125 185.35400390625 C54.112205711679906 186.8973275097522 52.436874434509775 188.4517823974046 50.765625 190.01171875 C45.120045242035474 195.2644058065324 39.34290706542561 200.26218020557604 33.27734375 205.02734375 C31.060990810585565 206.94716919494732 29.417218883531632 208.43278195508412 28 211 C28.09375 213.69921875000017 28.09375 213.69921875000017 28.5 216.6875 C28.585480630365964 220.6006133011972 28.502494496859185 222.36229614053212 26.0546875 225.46875 C23.691976356072644 227.42504727368913 21.29853919371328 229.20590647227414 18.72509765625 230.875 C16.878934799208366 232.07895109612906 15.088381755312696 233.34676685336052 13.29296875 234.625 C12.051886065329882 235.48266007725385 10.808430179960169 236.3368972578416 9.5625 237.1875 C8.971948242187523 237.59895263671876 8.381396484374989 238.01040527343753 7.77294921875 238.434326171875 C6.06640625 239.54296875 6.06640625 239.54296875 3 241 C0.70703125 240.30859375 0.70703125 240.30859375 -1 239 C-4.478548569123916 236.91287085852565 -6.952051713329638 236.73222842275266 -11 237 C-13.519287109375 238.03466796875 -13.519287109375 238.03466796875 -16.02734375 239.4921875 C-16.97279052734376 240.02771240234375 -17.918237304687523 240.5632373046875 -18.892333984375 241.114990234375 C-19.394786376953107 241.4053918457031 -19.394786376953107 241.4053918457031 -21.9375 242.875 C-33.645616143728375 249.42448775025514 -45.55253614020273 255.00876023191017 -58 260 C-58.75829101562499 260.305185546875 -59.51658203124998 260.61037109375 -60.2978515625 260.9248046875 C-72.19089607102762 265.624693581502 -84.47499464373038 268.51425945258654 -97 271 C-97.4321179199219 271.09418212890625 -97.4321179199219 271.09418212890625 -99.618896484375 271.57080078125 C-109.48886577189302 273.5164531432218 -119.41786016661081 273.39577873891517 -129.4375 273.375 C-130.37441680908205 273.3747885131836 -131.31133361816404 273.3745770263672 -132.27664184570313 273.3743591308594 C-145.07570550087587 273.34546672111475 -157.3869872465194 272.9858497092 -169.80810546875 269.59423828125 C-172.1021097455346 268.97231731781784 -174.40590562123316 268.4328213341191 -176.72265625 267.90234375 C-198.84608061858205 262.6782239317831 -220.42027908422563 253.50506512032024 -240 242 C-238.48387098715983 238.45120321353164 -236.405313046675 236.13560611254513 -233.70556640625 233.399169921875 C-232.81769439697266 232.49531051635745 -231.9298223876953 231.59145111083984 -231.01504516601563 230.6602020263672 C-230.04436436556276 229.68314707689933 -229.0731915509659 228.70658071999446 -228.1015625 227.73046875 C-227.10501650279997 226.72495412834223 -226.10854747873833 225.719363214763 -225.11215209960938 224.7136993408203 C-223.02606842869247 222.611152553411 -220.93565456118978 220.51301569487077 -218.8427734375 218.417236328125 C-216.15850536100564 215.72756566901364 -213.49079279047513 213.0220844755304 -210.82671546936035 210.31243419647217 C-208.7762502266376 208.23228177756118 -206.71467752250823 206.1634187904814 -204.64982223510742 204.09755897521973 C-203.6609199008687 203.1044431491889 -202.67615045545242 202.10719443500943 -201.69560623168945 201.10582542419434 C-200.32665547280556 199.71011993328796 -198.94032153578092 198.33152817209037 -197.55322265625 196.953857421875 C-196.7687173461914 196.16428146362307 -195.98421203613282 195.37470550537108 -195.17593383789063 194.5612030029297 C-192.99999999999997 193 -192.99999999999997 193 -190.86386108398438 193.1642608642578 C-188.3904116567687 194.27333412318558 -186.24811788593146 195.67202767510867 -184 197.1875 C-162.16091685156027 211.2763016617243 -136.41987476084748 216.9310446389764 -110.625 211.9375 C-108.40077180468097 211.34873371300375 -106.19252397407695 210.69762126447904 -104 210 C-103.28714843750004 209.77957031250003 -102.57429687499996 209.559140625 -101.83984375 209.33203125 C-78.78514259499087 202.0576764615247 -60.56604848295302 189.08659317129707 -47 169 C-46.45988281250004 168.2381640625 -45.91976562499997 167.476328125 -45.36328125 166.69140625 C-31.873774101027948 146.26241510838088 -27.322999224376133 117.91089774371108 -32.13134765625 94.0986328125 C-32.935649517694 90.67935546285969 -33.90754279861733 87.33764510491395 -35 84 C-35.208989257812505 83.35627441406251 -35.41797851562501 82.712548828125 -35.63330078125 82.04931640625 C-38.394783876914744 73.84760818579247 -42.11638702915752 66.67564911911947 -47.016357421875 59.565673828125 C-50.86294000303906 53.97435264273679 -50.86294000303906 53.97435264273679 -51 51 C-49.18409729003906 48.58282470703122 -49.18409729003906 48.58282470703122 -46.431884765625 45.8642578125 C-45.93459869384765 45.36624160766601 -45.437312622070294 44.868225402832024 -44.924957275390625 44.35511779785156 C-43.275346937100494 42.70899591297933 -41.60872305387318 41.0812940543056 -39.94140625 39.453125 C-38.79545961504118 38.31650197581831 -37.65061066790656 37.178771270162315 -36.50682067871094 36.03997802734375 C-33.491108393864806 33.043370876446744 -30.460683931636595 30.062078359958036 -27.427001953125 27.08367919921875 C-24.334926465694025 24.042719926307598 -21.256929650695838 20.98758477942519 -18.177734375 17.93359375 C-12.132216470181902 11.941725581738979 -6.07109054576415 5.965955386818365 0 0 Z " fill="#FEC708" transform="translate(386,142)"/>
<path d="M0 0 C0.8933052062988338 -0.008071746826175286 1.7866104125976676 -0.01614349365235057 2.7069854736328125 -0.0244598388671875 C4.595409211703043 -0.03822731739404617 6.48385706599305 -0.048981920636578025 8.372314453125 -0.056884765625 C10.25976113661784 -0.06830044962943305 12.147178284889605 -0.08858270383873901 14.034423828125 -0.118408203125 C32.88007157737252 -0.4150726079368354 50.6188343255065 2.422514679893993 68.55078125 8.23828125 C69.2592822265625 8.463222656249997 69.96778320312501 8.688164062499993 70.69775390625 8.919921875 C88.34966462392282 14.57629402634052 105.47961764620169 21.98268959255219 121.55078125 31.23828125 C120.03270844531033 34.81307115446273 117.93503414258356 37.09639848530799 115.19287109375 39.8232421875 C114.74247970581052 40.2735580444336 114.74247970581052 40.2735580444336 112.46322631835938 42.55242919921875 C111.47949717056127 43.525946055669806 110.49565874912446 44.499352502886666 109.51171875 45.47265625 C108.50522997000144 46.47541286325733 107.49918335531288 47.478613467005204 106.49356079101563 48.48223876953125 C103.85115977628249 51.117019383072034 101.20280696623183 53.74573735881282 98.55316162109375 56.37322998046875 C95.84822072541016 59.0576781311151 93.1489630385334 61.74782747449768 90.44921875 64.4375 C85.15527951347514 69.71001743451365 79.85503842054277 74.9761418239649 74.55078125 80.23828125 C70.42467813769997 78.6458039072615 66.79354511172454 76.68989160231163 62.98828125 74.42578125 C56.71535995841788 70.76830147859198 50.35678120147543 67.79663417293625 43.55078125 65.23828125 C43.17888671874999 65.09003906250001 43.17888671874999 65.09003906250001 41.296875 64.33984375 C18.56351356468224 55.882865831152515 -8.070238842308527 59.04788929269654 -29.88671875 68.546875 C-54.73073574923822 80.34233482529623 -73.10766868116653 100.49205788955655 -82.44921875 126.23828125 C-88.92743673277118 146.33736781193116 -90.36686078424682 168.0474135625421 -83.44921875 188.23828125 C-83.245546875 188.883779296875 -83.041875 189.52927734374998 -82.83203125 190.1943359375 C-79.94536251698756 199.3399083277385 -76.05613203342577 207.1538456495487 -70.52490234375 215.01171875 C-69.23046875000006 216.9101562499999 -69.23046875000006 216.9101562499999 -67.44921875 220.23828125 C-68.63353519069278 224.02763092728742 -71.41267203832692 226.4429475983868 -74.17431640625 229.1904296875 C-74.65253341674804 229.6689387512207 -75.13075042724608 230.14744781494142 -75.62345886230469 230.6404571533203 C-77.19870357942969 232.21431319714247 -78.78090410333473 233.78097417741856 -80.36328125 235.34765625 C-81.4594508802166 236.4400941103138 -82.55517856187188 237.53297559362886 -83.65048217773438 238.62628173828125 C-86.52961762879983 241.49779367169594 -89.41470931111257 244.36324779407198 -92.30108642578125 247.22747802734375 C-95.24731689967408 250.15322250916313 -98.18786944026641 253.0846613917617 -101.12890625 256.015625 C-106.89680462866312 261.76209606888415 -112.67100839210093 267.50217930766456 -118.44921875 273.23828125 C-139.49183880015988 265.1844412833615 -158.6220931763018 244.79009007207378 -174.912109375 229.662109375 C-176.54953603661212 228.14535710522205 -178.19399386367718 226.63651221851592 -179.83984375 225.12890625 C-183.05695024810643 222.18019678350083 -186.25588184683227 219.21272005899897 -189.44921875 216.23828125 C-190.14015625000002 215.6027734375 -190.83109375 214.96726562499998 -191.54296875 214.3125 C-205.31877929100526 201.19417132572454 -213.9808467149488 183.6315167483483 -214.72265625 164.6484375 C-215.25629795859226 141.01759264111837 -209.50966664301222 123.19389619609134 -192.9541015625 105.654296875 C-187.3941963074394 99.89020485259522 -181.70292958846773 94.28471907716312 -175.59375 89.1015625 C-173.28753912833923 87.0978055131472 -171.05720127774657 85.02602832698483 -168.825439453125 82.940185546875 C-162.56953271682602 77.09850539511046 -156.16650600668507 71.54982042163945 -149.44921875 66.23828125 C-148.80887695312498 65.7253955078125 -148.16853515625002 65.21250976562499 -147.5087890625 64.68408203125 C-131.36186561965292 51.76281419534581 -114.47997474099591 40.36408747417107 -96.44921875 30.23828125 C-95.72718261718751 29.828681640625007 -95.00514648437502 29.41908203125 -94.26123046875 28.9970703125 C-76.7842361939187 19.15834050979339 -57.988779240615315 10.943034426699128 -38.44921875 6.23828125 C-36.70698316999497 5.803578069920164 -34.964800141572624 5.368664240912864 -33.22265625 4.93359375 C-31.340295030714543 4.470816774348975 -29.457480637520064 4.009879226554972 -27.57421875 3.55078125 C-26.693466796874986 3.3357495117187455 -25.81271484375 3.120717773437505 -24.9052734375 2.899169921875 C-24.05610351562501 2.697834472656254 -23.206933593749994 2.4964990234374937 -22.33203125 2.2890625 C-21.957639160156248 2.1996740722656227 -21.957639160156248 2.1996740722656227 -20.06298828125 1.747314453125 C-13.363704886788724 0.44262494467629665 -6.805531544450616 0.06032128026699013 0 0 Z " fill="#FEC708" transform="translate(244.44921875,96.76171875)"/>
<path d="M0 0 C11.40620305598344 18.368798469809576 16.507037969426335 36.85852052045041 13.50390625 58.58984375 C12.819493488047954 61.47056413222754 11.982519349520487 64.2075765855734 11 67 C10.671289062500023 68.02867187499999 10.342578124999989 69.05734374999997 10.00390625 70.1171875 C3.316579704811943 89.41556237434884 -9.807248899017395 104.71713839038705 -28 114 C-46.50450807217271 122.7170793628161 -67.05634248994537 125.29809878043096 -86.78515625 118.7421875 C-94.31143745387084 115.94512513437485 -101.30013976035019 112.44555432372056 -108 108 C-106.50222622100449 104.50775863198334 -104.50052712173388 102.24920604039039 -101.82470703125 99.57073974609375 C-100.94977600097656 98.69016906738284 -100.07484497070311 97.80959838867187 -99.17340087890625 96.90234375 C-98.20163837962093 95.93446960545936 -97.22977210068896 94.96669964849008 -96.2578125 93.9990234375 C-95.23572967509017 92.97422999598359 -94.21407269497075 91.94901168534852 -93.19281005859375 90.92340087890625 C-90.42069520516282 88.1421705027991 -87.64229388064666 85.36730092751156 -84.8624496459961 82.59379863739014 C-81.95624992202616 79.69266046176244 -79.05493075555862 76.786648114841 -76.15283203125 73.88140869140625 C-71.28061161363189 69.00555025061044 -66.40419013217266 64.13392318715569 -61.525390625 59.2646484375 C-55.87870963692524 53.62886387579323 -50.239286339785 47.98589383639609 -44.60355567932129 42.339160680770874 C-39.76813289861991 37.49467491956855 -34.92883972016716 32.654081344304245 -30.08626365661621 27.81674599647522 C-27.19233097724407 24.925936901759542 -24.29977980120134 22.033780306155847 -21.41070556640625 19.13811492919922 C-18.696756854424223 16.418407330734738 -15.977997767273223 13.703603707732839 -13.255378723144531 10.992576599121094 C-12.254684537231924 9.99453630603631 -11.255705755356928 8.994772785957707 -10.258537292480469 7.9932098388671875 C-8.90206445956369 6.631309293335647 -7.538869948876766 5.276113291165075 -6.17529296875 3.92132568359375 C-5.794047698974623 3.540457439422596 -5.794047698974623 3.540457439422596 -3.864715576171875 1.6130332946777344 C-2 0 -2 0 0 0 Z " fill="#FDFDFD" transform="translate(319,211)"/>
<path d="M0 0 C-1.4977737789955086 3.4922413680166926 -3.49947287826609 5.750793959609609 -6.17529296875 8.42926025390625 C-7.050223999023444 9.309830932617189 -7.925155029296889 10.190401611328127 -8.82659912109375 11.09765625 C-9.798361620379069 12.065530394540644 -10.770227899311067 13.033300351509922 -11.7421875 14.0009765625 C-12.76427032490983 15.025770004016437 -13.785927305029247 16.050988314651505 -14.80718994140625 17.07659912109375 C-17.579304794837185 19.857829497200896 -20.357706119353338 22.632699072488407 -23.137550354003906 25.406201362609863 C-26.04375007797381 28.307339538237557 -28.945069244441356 31.213351885159 -31.84716796875 34.11859130859375 C-36.71938838636811 38.99444974938953 -41.59580986782737 43.86607681284431 -46.474609375 48.7353515625 C-52.12129036307479 54.3711361242068 -57.76071366021503 60.01410616360391 -63.39644432067871 65.66083931922913 C-68.23186710138006 70.50532508043142 -73.07116027983284 75.34591865569575 -77.91373634338379 80.18325400352478 C-80.80766902275596 83.07406309824046 -83.70022019879866 85.9662196938441 -86.58929443359375 88.86188507080078 C-89.30324314557578 91.58159266926526 -92.02200223272678 94.29639629226716 -94.74462127685547 97.0074234008789 C-95.74531546276808 98.00546369396369 -96.74429424464307 99.00522721404229 -97.74146270751953 100.00679016113281 C-99.09793554043634 101.36869070666432 -100.46113005112323 102.72388670883493 -101.82470703125 104.07867431640625 C-102.58719757080078 104.84041080474856 -103.34968811035156 105.60214729309081 -104.13528442382813 106.38696670532227 C-106 108 -106 108 -108 108 C-112.52712855215381 100.81051545067385 -116.42178398319678 93.7742575696061 -118.9375 85.625 C-119.13625732421875 84.98433593750002 -119.3350146484375 84.34367187499998 -119.539794921875 83.68359375 C-125.44882867765702 63.33112950460787 -122.00992289624202 42.89637330159411 -112.06640625 24.55859375 C-109.46396016825548 19.9745897379932 -106.55313334544147 15.898169021548398 -103 12 C-102.27296874999999 11.181445312499989 -101.54593750000001 10.362890625000006 -100.796875 9.51953125 C-94.62564213114393 2.940200723687326 -87.89802683984863 -1.6901630188643253 -80 -6 C-79.25234375 -6.409921875000009 -78.50468749999999 -6.81984374999999 -77.734375 -7.2421875 C-52.4509707651697 -19.690886531653092 -23.00374292672791 -15.110810816428483 0 0 Z " fill="#FDFDFD" transform="translate(301,193)"/>
</svg>
