<?xml version="1.0" encoding="UTF-8"?>
<!-- Generator: visioncortex VTracer 0.6.12 -->
<svg version="1.1" xmlns="http://www.w3.org/2000/svg" width="512" height="512">
<path d="M0 0 C0.8717285156250227 0.16097167968750625 1.7434570312499886 0.3219433593749983 2.6416015625 0.48779296875 C54.33766514581754 10.297417866714554 102.66872083470122 38.24260111578501 142.10546875 72.50390625 C144.79314255680373 74.8216168607255 147.5355750464277 77.04080192582472 150.3125 79.25 C157.90012570825456 85.44509902480323 164.9452716716287 92.21281625893215 172 99 C172.7639306640625 99.72993164062501 173.52786132812503 100.45986328125 174.31494140625 101.2119140625 C197.94606901850545 123.88020152178456 212.2534246128265 147.3238969984059 213 181 C212.7668040780174 196.35550868548535 208.92464842554944 210.40412447081957 202.3125 224.1875 C202.0345458984375 224.78006591796873 201.756591796875 225.3726318359375 201.47021484375 225.983154296875 C195.55545056657138 237.62578509526196 186.23580821806115 247.2234061572268 177.00390625 256.27734375 C175.36179414521536 257.88795250505257 173.73091396149965 259.50930449861335 172.1015625 261.1328125 C166.57058407544787 266.62275255875215 160.95277557269105 271.96528771411204 155 277 C154.43804931640625 277.490810546875 153.8760986328125 277.98162109375 153.297119140625 278.4873046875 C148.87775801312603 282.2973530188672 145.95633381634383 283.09975161504536 140.1328125 283.328125 C137.2870445086649 282.8903145397946 135.3777145917096 281.57409676803076 133 280 C132.2613671875 280.6290625 131.52273437500003 281.258125 130.76171875 281.90625 C129.73715631003 282.77104324727395 128.7124022776651 283.6356095354732 127.6875 284.5 C127.152216796875 284.956328125 126.61693359374999 285.41265625 126.0654296875 285.8828125 C122.45786290006697 288.9163037739895 118.73611324158372 291.47045089480775 114.75 294 C110.17836869631776 297.2262655200272 110.17836869631776 297.2262655200272 109.421875 300.5078125 C109.5 303.125 109.5 303.125 109.90625 305.5078125 C110.04513873596022 309.1999380642765 109.06411498836843 310.93331487442407 107 314 C104.40650477210397 316.17799206001285 101.59126820682991 317.8913149868598 98.6875 319.625 C97.84646728515622 320.13861083984375 97.0054345703125 320.6522216796875 96.138916015625 321.181396484375 C93.43970060850677 322.8121466001995 90.72384441564856 324.41076764432177 88 326 C87.56655273437502 326.25450927734374 87.56655273437502 326.25450927734374 85.373046875 327.54248046875 C38.6905024687191 354.6865442106043 -16.90051507239889 370.39579199984706 -71 361 C-71.82322753906249 360.8599755859375 -72.646455078125 360.719951171875 -73.49462890625 360.57568359375 C-128.12074308760987 350.88249252010905 -176.95053813343466 322.2362460686797 -219 287 C-219.29882080078124 286.7507275390625 -219.29882080078124 286.7507275390625 -220.81103515625 285.4892578125 C-230.1805143033115 277.65165104873256 -239.18608598373953 269.4558291275029 -248 261 C-248.7439501953125 260.290048828125 -249.487900390625 259.58009765625 -250.25439453125 258.8486328125 C-273.91418267604786 236.16008414770323 -288.2525959009543 212.71348407100447 -289 179 C-288.76626374049005 163.6089111142936 -284.9168227511481 149.5465732144839 -278.25 135.75 C-278.10683349609377 135.44952758789063 -278.10683349609377 135.44952758789063 -277.38232421875 133.928955078125 C-271.5323069833939 122.47331176359285 -262.73484335752414 113.2871522408795 -253.652099609375 104.370849609375 C-251.9287381371739 102.67889782939113 -250.21650943281668 100.9762785490073 -248.505859375 99.271484375 C-242.83615610181664 93.64161951972923 -237.09319868012116 88.17372384143016 -231 83 C-229.79638658656737 81.94344247597718 -228.59455828702949 80.88484788450577 -227.39453125 79.82421875 C-219.4926115145604 72.88754386837186 -211.44716713939712 66.26354570200195 -203 60 C-202.34725097656252 59.51063964843749 -201.69450195312498 59.02127929687501 -201.02197265625 58.51708984375 C-162.17247186666785 29.459147371038995 -118.97483350321232 7.6947992489830455 -71 -1 C-70.64816650390625 -1.0656616210937528 -70.64816650390625 -1.0656616210937528 -68.86767578125 -1.39794921875 C-46.708735068880685 -5.338913231700687 -22.000095117250453 -4.207006415319256 0 0 Z " fill="#FEC708" transform="translate(294,76)"/>
<path d="M0 0 C0.8717285156250227 0.16097167968750625 1.7434570312499886 0.3219433593749983 2.6416015625 0.48779296875 C54.33766514581754 10.297417866714554 102.66872083470122 38.24260111578501 142.10546875 72.50390625 C144.79314255680373 74.8216168607255 147.5355750464277 77.04080192582472 150.3125 79.25 C157.90012570825456 85.44509902480323 164.9452716716287 92.21281625893215 172 99 C172.7639306640625 99.72993164062501 173.52786132812503 100.45986328125 174.31494140625 101.2119140625 C197.94606901850545 123.88020152178456 212.2534246128265 147.3238969984059 213 181 C212.7668040780174 196.35550868548535 208.92464842554944 210.40412447081957 202.3125 224.1875 C202.0345458984375 224.78006591796873 201.756591796875 225.3726318359375 201.47021484375 225.983154296875 C195.55545056657138 237.62578509526196 186.23580821806115 247.2234061572268 177.00390625 256.27734375 C175.36179414521536 257.88795250505257 173.73091396149965 259.50930449861335 172.1015625 261.1328125 C166.57058407544787 266.62275255875215 160.95277557269105 271.96528771411204 155 277 C154.43804931640625 277.490810546875 153.8760986328125 277.98162109375 153.297119140625 278.4873046875 C148.96520263086109 282.2219646968278 145.8014291991924 283.41554885146166 140 283.3515625 C136.55982680841464 282.74684455616665 135.0609314102823 280.6670877074242 133 278 C130.49899718704 274.42713883862854 130.3586649904787 271.2755667301422 131 267 C136.04129115735935 258.8788756782471 144.78799473728964 252.69851398880894 151.8486328125 246.33349609375 C168.80160824782644 230.98910221507475 185.53900608829093 213.31571623589724 187.19287109375 189.18603515625 C187.96979770598512 161.24963763872947 181.0539740885199 143.3321812194149 162.01953125 122.87109375 C158.51270343249968 119.2840181563555 154.7577522274538 116.01240631425281 150.95703125 112.7421875 C149.11463319674493 111.10204871406836 147.4001136406862 109.3989243915461 145.6875 107.625 C142.0581724469953 103.92953435946902 138.08801482293546 100.72716587868126 134.0390625 97.50390625 C131.5443088294266 95.44846010239388 129.147151227108 93.34166061293064 126.75 91.17578125 C122.14367290373679 87.0609683400443 117.3314924052786 83.3063680831118 112.375 79.625 C111.49747070312497 78.97217041015625 110.61994140625 78.3193408203125 109.7158203125 77.646728515625 C66.58315585575912 45.761445277583704 16.437694077169226 21.225435216861896 -38.125 21.5 C-39.012982788085935 21.500765380859377 -39.90096557617187 21.501530761718755 -40.81585693359375 21.5023193359375 C-55.76854820743233 21.548576176390995 -69.51402761617996 23.124753033814045 -84 27 C-85.36580419672171 27.31976914153489 -86.73289582761808 27.63411982405249 -88.1015625 27.94140625 C-113.47443217246484 33.99938262790114 -138.0390003376324 46.1225646476515 -160 60 C-160.617138671875 60.38978027343751 -161.23427734375 60.77956054687499 -161.8701171875 61.18115234375 C-177.1275725750262 70.91435664268914 -191.7782903827931 81.7004573040087 -205.40234375 93.61279296875 C-207.13027193205687 95.11311202902613 -208.87561578129785 96.59117235944012 -210.625 98.06640625 C-216.3736582095023 102.92435247085831 -221.97182248891045 107.80094103951268 -227.21484375 113.2109375 C-229.05148998577414 115.05160265532726 -230.9635594558486 116.74555096215596 -232.9375 118.4375 C-247.8699229302485 131.37893320621535 -261.48433239936514 148.61969830899088 -263.26708984375 169.062744140625 C-263.3646240771693 172.23508221491088 -263.3609626714905 175.38916427080488 -263.3125 178.5625 C-263.31572265625 179.62146484375 -263.3189453125 180.6804296875 -263.322265625 181.771484375 C-263.2063936947414 198.86786099406254 -257.96270084400413 213.83660828024784 -247 227 C-246.368359375 227.770859375 -245.73671875 228.54171874999997 -245.0859375 229.3359375 C-237.73804332246493 237.8753820847029 -229.26406307399688 245.3686795243791 -221 253 C-219.94791362542924 253.9778613112594 -218.89582992492117 254.9557254995729 -217.84375 255.93359375 C-211.75691272864066 261.53943094962835 -205.47899389159403 266.85464116212523 -199 272 C-198.3408056640625 272.5264208984375 -197.681611328125 273.052841796875 -197.00244140625 273.59521484375 C-186.97949564103908 281.5797482418629 -176.82085745017255 289.1324444478166 -166 296 C-164.948125 296.672890625 -163.89625 297.34578125 -162.8125 298.0390625 C-159.56912923713293 300.0742776536991 -156.29953243447025 302.05772204212036 -153 304 C-152.6762841796875 304.1906201171875 -152.6762841796875 304.1906201171875 -151.0380859375 305.1552734375 C-125.86988364094199 319.8396829579647 -99.61078599268072 330.4008660267907 -71 336 C-70.5602685546875 336.09418212890625 -70.5602685546875 336.09418212890625 -68.3349609375 336.57080078125 C-59.80373918147558 338.2359699740175 -51.39579875847261 338.3050523164804 -42.73828125 338.2607421875 C-40.26797600133415 338.2500776044014 -37.7984074720481 338.2606635651803 -35.328125 338.2734375 C9.344132440047417 338.31581602004275 54.11227519114095 321.31717374768886 90.421875 295.6171875 C94.35376679674863 293.1508190093122 97.51409345905415 293.12925210990306 102 294 C104.9797278650031 295.1541590240608 107.02319780401382 296.4734362465502 109 299 C110.53469931687675 303.30348674423163 110.46467648178776 306.62066388212406 109.01171875 310.93359375 C106.26132238225728 315.1259454950059 102.94201047351396 317.08485887274674 98.6875 319.625 C97.84646728515622 320.13861083984375 97.0054345703125 320.6522216796875 96.138916015625 321.181396484375 C93.43970060850677 322.8121466001995 90.72384441564856 324.41076764432177 88 326 C87.56655273437502 326.25450927734374 87.56655273437502 326.25450927734374 85.373046875 327.54248046875 C38.6905024687191 354.6865442106043 -16.90051507239889 370.39579199984706 -71 361 C-71.82322753906249 360.8599755859375 -72.646455078125 360.719951171875 -73.49462890625 360.57568359375 C-128.12074308760987 350.88249252010905 -176.95053813343466 322.2362460686797 -219 287 C-219.29882080078124 286.7507275390625 -219.29882080078124 286.7507275390625 -220.81103515625 285.4892578125 C-230.1805143033115 277.65165104873256 -239.18608598373953 269.4558291275029 -248 261 C-248.7439501953125 260.290048828125 -249.487900390625 259.58009765625 -250.25439453125 258.8486328125 C-273.91418267604786 236.16008414770323 -288.2525959009543 212.71348407100447 -289 179 C-288.76626374049005 163.6089111142936 -284.9168227511481 149.5465732144839 -278.25 135.75 C-278.10683349609377 135.44952758789063 -278.10683349609377 135.44952758789063 -277.38232421875 133.928955078125 C-271.5323069833939 122.47331176359285 -262.73484335752414 113.2871522408795 -253.652099609375 104.370849609375 C-251.9287381371739 102.67889782939113 -250.21650943281668 100.9762785490073 -248.505859375 99.271484375 C-242.83615610181664 93.64161951972923 -237.09319868012116 88.17372384143016 -231 83 C-229.79638658656737 81.94344247597718 -228.59455828702949 80.88484788450577 -227.39453125 79.82421875 C-219.4926115145604 72.88754386837186 -211.44716713939712 66.26354570200195 -203 60 C-202.34725097656252 59.51063964843749 -201.69450195312498 59.02127929687501 -201.02197265625 58.51708984375 C-162.17247186666785 29.459147371038995 -118.97483350321232 7.6947992489830455 -71 -1 C-70.64816650390625 -1.0656616210937528 -70.64816650390625 -1.0656616210937528 -68.86767578125 -1.39794921875 C-46.708735068880685 -5.338913231700687 -22.000095117250453 -4.207006415319256 0 0 Z " fill="#010100" transform="translate(294,76)"/>
<path d="M0 0 C1.0299609374999932 0.3287109375000057 2.0599218749999864 0.6574218750000114 3.12109375 0.99609375 C23.904511511749433 8.206667259178374 38.927702307753975 22.41163955912785 48.4921875 42.06640625 C49.79038592526172 45.01231806117079 50.93126423127762 47.96381883885684 52 51 C52.319687499999986 51.88429687499999 52.63937499999997 52.76859375000001 52.96875 53.6796875 C57.00816488339251 66.88258985034781 56.565991412754556 83.02297177427647 52 96 C51.83564453125001 96.5143359375 51.83564453125001 96.5143359375 51.00390625 99.1171875 C44.31657970481194 118.41556237434884 31.192751100982548 133.71713839038705 13 143 C-5.610322579773083 151.76692632210256 -26.22669450898107 154.48406586638043 -46.03369140625 147.74072265625 C-55.87706966358303 144.03265093626635 -65.19825666481341 139.1111935484563 -73 132 C-73.81855468750001 131.27296875000002 -74.637109375 130.54593750000004 -75.48046875 129.796875 C-85.62691970834979 120.27978030381712 -91.62533374424277 109.09085735624325 -96 96 C-96.31968749999999 95.16726562500003 -96.639375 94.33453125 -96.96875 93.4765625 C-102.93258557537214 75.97160067228731 -99.11811167806115 55.73136012516659 -91.1875 39.5625 C-88.05836833760733 33.51597699324722 -84.60225566965025 28.049168926827036 -80 23 C-79.27296874999999 22.18144531249999 -78.54593750000001 21.362890625000006 -77.796875 20.51953125 C-71.62564213114393 13.940200723687326 -64.89802683984863 9.309836981135675 -57 5 C-56.252343749999994 4.590078124999991 -55.50468749999999 4.18015625000001 -54.734375 3.7578125 C-38.185988295456184 -4.390057289641817 -17.4212698765474 -6.052114851627579 0 0 Z " fill="#FEFEFE" transform="translate(278,182)"/>
<path d="M0 0 C2.733722167192127 2.1817918109433094 5.385042676141211 4.424820306822426 8.0078125 6.73828125 C8.630429687499998 7.277109375000009 9.253046874999995 7.81593749999999 9.89453125 8.37109375 C25.75989351945907 23.090007930057567 38.09801679508428 47.60544036213008 39.130615234375 69.32080078125 C39.79167060045319 93.84615579143286 39.79167060045319 93.84615579143286 36.0078125 105.73828125 C35.78738281250003 106.45113281250002 35.566953125 107.16398437499998 35.33984375 107.8984375 C28.40599453564937 129.8739701952171 15.98569183494709 148.36230605609148 -2.9921875 161.73828125 C-3.9306249999999636 162.4034375 -4.869062500000041 163.06859375 -5.8359375 163.75390625 C-14.942888429981053 169.77921216832078 -24.627513837504466 173.4522007653618 -34.9921875 176.73828125 C-36.1304296875 177.101796875 -37.268671874999995 177.46531249999998 -38.44140625 177.83984375 C-63.017986815174 184.30895597748736 -89.15428427572132 178.93429637014083 -111.1171875 167.046875 C-117.88805224890044 162.90164388242033 -124.01427356743187 157.94666780035374 -129.9921875 152.73828125 C-130.6173828125 152.19816406250004 -131.242578125 151.65804687499997 -131.88671875 151.1015625 C-148.532035419286 135.62570601825166 -160.02515787529046 110.84703840575435 -161.11328125 88.22021484375 C-162.12950821726392 58.93763478204028 -154.5109979947072 32.91743729415492 -134.3935546875 11.21826171875 C-122.26701290863801 -1.5885494769749755 -107.79287021342407 -10.856765085004326 -90.9921875 -16.26171875 C-90.35265136718749 -16.470546874999997 -89.71311523437498 -16.679374999999993 -89.05419921875 -16.89453125 C-58.918252141732864 -26.325538208492105 -24.87505386881344 -18.80242322459921 0 0 Z M-111.9921875 21.73828125 C-112.40146484375 22.10179687499999 -112.40146484375 22.10179687499999 -114.47265625 23.94140625 C-121.05198677631267 30.112639118856066 -125.68235051886433 36.840254410151374 -129.9921875 44.73828125 C-130.1971484375 45.11210937499999 -130.1971484375 45.11210937499999 -131.234375 47.00390625 C-139.40060683734208 63.58958641576453 -141.0016934226432 84.06486588782394 -135.321044921875 101.62548828125 C-130.52342135038757 115.15030961503697 -124.33292596367798 125.77058529944173 -113.9921875 135.73828125 C-113.27417968750001 136.47562500000004 -112.55617187500002 137.21296874999996 -111.81640625 137.97265625 C-96.74927955855992 152.61415789365924 -76.34124067512442 157.21024749455728 -55.98046875 156.953125 C-49.98839015967451 156.77270146286844 -44.65249127311586 155.70465963531592 -38.9921875 153.73828125 C-37.96222656250001 153.40957031250002 -36.932265625000014 153.080859375 -35.87109375 152.7421875 C-16.574438701542704 146.0474296260454 -1.2762356562486161 132.93335777050504 8.0078125 114.73828125 C16.49159770379697 96.72900712822309 19.395838484622118 76.66073415456088 13.40234375 57.3671875 C9.403130053305063 46.960270065183124 4.5696519930518775 37.03443160291437 -2.9921875 28.73828125 C-3.719218749999982 27.91972656249999 -4.446249999999964 27.101171875000006 -5.1953125 26.2578125 C-18.882841705174997 11.665140234482806 -38.09240348046137 3.0588592884380432 -58.004150390625 2.40576171875 C-77.96585560063599 2.0812417984900833 -97.02310531647231 8.094146077067052 -111.9921875 21.73828125 Z " fill="#020201" transform="translate(316.9921875,176.26171875)"/>
</svg>
